<?xml version="1.0" encoding="UTF-8" standalone="no"?>
<!-- Created with Inkscape (http://www.inkscape.org/) -->

<svg
   xmlns:dc="http://purl.org/dc/elements/1.1/"
   xmlns:cc="http://creativecommons.org/ns#"
   xmlns:rdf="http://www.w3.org/1999/02/22-rdf-syntax-ns#"
   xmlns:svg="http://www.w3.org/2000/svg"
   xmlns="http://www.w3.org/2000/svg"
   xmlns:sodipodi="http://sodipodi.sourceforge.net/DTD/sodipodi-0.dtd"
   xmlns:inkscape="http://www.inkscape.org/namespaces/inkscape"
   width="112mm"
   height="21mm"
   viewBox="0 0 112 21"
   version="1.1"
   id="svg1404"
   inkscape:version="0.92.3 (2405546, 2018-03-11)"
   sodipodi:docname="Lever.svg">
  <defs
     id="defs1398" />
  <sodipodi:namedview
     id="base"
     pagecolor="#ffffff"
     bordercolor="#666666"
     borderopacity="1.0"
     inkscape:pageopacity="0.0"
     inkscape:pageshadow="2"
     inkscape:zoom="2.56"
     inkscape:cx="191.2966"
     inkscape:cy="93.125184"
     inkscape:document-units="mm"
     inkscape:current-layer="layer1"
     showgrid="false"
     inkscape:window-width="1920"
     inkscape:window-height="1017"
     inkscape:window-x="-8"
     inkscape:window-y="-8"
     inkscape:window-maximized="1"
     inkscape:measure-start="414.453,73.0469"
     inkscape:measure-end="405,62.4022" />
  <metadata
     id="metadata1401">
    <rdf:RDF>
      <cc:Work
         rdf:about="">
        <dc:format>image/svg+xml</dc:format>
        <dc:type
           rdf:resource="http://purl.org/dc/dcmitype/StillImage" />
        <dc:title></dc:title>
      </cc:Work>
    </rdf:RDF>
  </metadata>
  <g
     inkscape:label="Layer 1"
     inkscape:groupmode="layer"
     id="layer1"
     transform="translate(0,-276)">
    <path
       style="fill:none;fill-opacity:1;stroke:#7880ff;stroke-width:0.24912414;stroke-linecap:round;stroke-miterlimit:4;stroke-dasharray:none;stroke-dashoffset:0;stroke-opacity:1"
       d="m 5.5698824,269.58374 c 0.076094,-1.11798 -0.767712,-2.08591 -1.8856855,-2.162 -1.1179731,-0.0761 -2.0798674,0.76892 -2.1559626,1.88689 l -0.00749,0.11013 c -0.2530733,3.71934 2.5566865,6.93975 6.2760014,7.19291 l -0.4562479,6.70308 c -3.7193125,-0.25319 -6.93964104,2.55673 -7.19287256,6.27596 -0.2540135,3.73079 2.54507766,6.93876 6.27593556,7.19269 3.7308572,0.25396 6.9388832,-2.54514 7.1927662,-6.27601 l 1.044854,-15.34719 c 0.07973,-1.17152 -0.782333,-2.19403 -1.953843,-2.27377 l -4.6352533,-0.31581 c -1.4877085,-0.1014 -2.6109683,-1.38893 -2.5097058,-2.87666 z"
       id="path840"
       inkscape:connector-curvature="0"
       sodipodi:nodetypes="cscccccscccccc" />
    <circle
       style="fill:none;fill-opacity:1;stroke:#78808d;stroke-width:0.26458332;stroke-linecap:round;stroke-miterlimit:4;stroke-dasharray:none;stroke-dashoffset:0;stroke-opacity:1"
       id="path1953"
       cx="6.8822918"
       cy="290.11755"
       r="6.75" />
    <circle
       style="fill:none;fill-opacity:1;stroke:#ff0000;stroke-width:0.26458332;stroke-linecap:round;stroke-miterlimit:4;stroke-dasharray:none;stroke-dashoffset:0;stroke-opacity:1"
       id="path1949"
       cx="6.8822918"
       cy="290.11755"
       r="2.9000001" />
    <rect
       style="fill:none;fill-opacity:1;stroke:#78808d;stroke-width:0.26499999;stroke-linecap:round;stroke-miterlimit:4;stroke-dasharray:none;stroke-dashoffset:0;stroke-opacity:1"
       id="rect822"
       width="100"
       height="5"
       x="7.1561418"
       y="280.48941" />
    <path
       style="fill:none;fill-rule:evenodd;stroke:#ff0000;stroke-width:0.26458332px;stroke-linecap:butt;stroke-linejoin:miter;stroke-opacity:1"
       d="m 27.482758,290.30436 c -13.785063,4.64317 -18.0440635,6.09782 -18.0440635,6.09782 -0.3316434,0.0926 -0.5327077,0.15529 -0.7790346,0.22897 -0.8458001,0.23118 -1.750888,0.30038 -2.6745982,0.1765 -3.6948405,-0.49553 -6.28839755,-3.89249 -5.79287291,-7.58733 0.49552795,-3.69484 3.89249221,-6.2884 7.58733311,-5.79287 l 0.042111,0.007 1.1208522,-6.29198 c 0,0 0.093257,-1.0173 1.6407509,-1.00712 3.283984,0.0216 95.264154,4.65452 96.572904,4.35427 1.36842,-0.31394 1.64316,-3.01217 2.75845,-2.47891 2.11284,1.01022 1.1454,5.68315 -0.37418,7.01583 -0.48661,0.42676 -2.38427,0.46298 -2.38427,0.46298 0,0 -66.223883,0.2847 -79.673382,4.81484 z"
       id="path824"
       inkscape:connector-curvature="0"
       sodipodi:nodetypes="sccsscccsssscs" />
  </g>
</svg>
